<svg width="176" height="32" viewBox="0 0 176 32" fill="none" xmlns="http://www.w3.org/2000/svg">
<g clip-path="url(#clip0_4492_2037)">
<rect width="32" height="32" rx="16" fill="#EFF5FB"/>
<g clip-path="url(#clip1_4492_2037)">
<path d="M25.8217 20.5411C25.768 20.4479 25.4355 19.6996 23.8353 18.1615C22.1602 16.551 22.3852 16.8125 24.4029 14.0277C25.6317 12.3318 26.123 11.296 25.9692 10.8533C25.823 10.4312 24.9192 10.5426 24.9192 10.5426L21.9139 10.5607C21.9139 10.5607 21.6914 10.5296 21.5252 10.6319C21.3639 10.7329 21.2601 10.9659 21.2601 10.9659C21.2601 10.9659 20.7839 12.2787 20.1488 13.3947C18.81 15.7496 18.2737 15.8739 18.0549 15.7276C17.5461 15.3871 17.6736 14.3579 17.6736 13.6277C17.6736 11.3452 18.0074 10.3937 17.0223 10.1477C16.6948 10.0661 16.4548 10.0118 15.6185 10.0027C14.5459 9.99105 13.6371 10.0066 13.1233 10.2668C12.7808 10.4403 12.517 10.8274 12.6783 10.8494C12.877 10.8766 13.3271 10.975 13.5658 11.3116C13.8746 11.7453 13.8634 12.7214 13.8634 12.7214C13.8634 12.7214 14.0409 15.4078 13.4496 15.7418C13.0433 15.971 12.487 15.5036 11.2932 13.3662C10.6819 12.2722 10.2193 11.0617 10.2193 11.0617C10.2193 11.0617 10.1306 10.8364 9.97182 10.716C9.77931 10.5698 9.50929 10.5231 9.50929 10.5231L6.65158 10.5413C6.65158 10.5413 6.2228 10.5542 6.06528 10.7471C5.92527 10.9193 6.05403 11.274 6.05403 11.274C6.05403 11.274 8.2917 16.6947 10.8244 19.4277C13.1483 21.9328 15.786 21.7684 15.786 21.7684H16.9811C16.9811 21.7684 17.3424 21.727 17.5261 21.5211C17.6961 21.3321 17.6899 20.9774 17.6899 20.9774C17.6899 20.9774 17.6661 19.3163 18.4112 19.0717C19.145 18.8309 20.0876 20.677 21.0864 21.3878C21.8414 21.925 22.4152 21.8072 22.4152 21.8072L25.0867 21.7684C25.0867 21.7684 26.4843 21.6791 25.8217 20.5411Z" fill="#333333"/>
</g>
</g>
<g clip-path="url(#clip2_4492_2037)">
<rect x="48" width="32" height="32" rx="16" fill="#EFF5FB"/>
<g clip-path="url(#clip3_4492_2037)">
<path d="M56.2826 15.7694L59.9693 17.1638L61.3963 21.8146C61.4876 22.1125 61.847 22.2226 62.0856 22.0249L64.1406 20.3271C64.3561 20.1492 64.6629 20.1404 64.888 20.306L68.5946 23.0331C68.8498 23.2211 69.2113 23.0794 69.2753 22.7669L71.9906 9.53073C72.0604 9.18936 71.7295 8.90457 71.4087 9.03029L56.2783 14.9455C55.9049 15.0914 55.9082 15.6272 56.2826 15.7694ZM61.1663 16.4215L68.3716 11.9242C68.5011 11.8437 68.6343 12.0211 68.5231 12.1256L62.5767 17.7273C62.3677 17.9245 62.2329 18.1883 62.1947 18.4747L61.9921 19.996C61.9653 20.1991 61.6837 20.2193 61.6284 20.0227L60.8494 17.2486C60.7602 16.9322 60.8902 16.5943 61.1663 16.4215Z" fill="#333333"/>
</g>
</g>
<g clip-path="url(#clip4_4492_2037)">
<rect x="96" width="32" height="32" rx="16" fill="#EFF5FB"/>
<g clip-path="url(#clip5_4492_2037)">
<path d="M120.47 10.7133C119.834 10.9947 119.159 11.1795 118.469 11.2616C119.197 10.8261 119.742 10.1408 120.002 9.33327C119.319 9.73994 118.569 10.0249 117.789 10.1791C117.264 9.61792 116.569 9.24574 115.811 9.12043C115.053 8.99511 114.275 9.12368 113.598 9.48615C112.921 9.84862 112.382 10.4247 112.066 11.1248C111.75 11.8249 111.674 12.6098 111.85 13.3574C110.464 13.288 109.109 12.9279 107.871 12.3005C106.634 11.6731 105.542 10.7925 104.667 9.71577C104.357 10.2478 104.194 10.8526 104.195 11.4683C104.195 12.6766 104.81 13.7441 105.745 14.3691C105.192 14.3517 104.651 14.2023 104.167 13.9333V13.9766C104.167 14.7814 104.446 15.5613 104.955 16.1842C105.465 16.807 106.174 17.2345 106.963 17.3941C106.449 17.5333 105.91 17.5538 105.388 17.4541C105.61 18.1468 106.044 18.7526 106.627 19.1867C107.211 19.6208 107.916 19.8614 108.644 19.8749C107.921 20.4427 107.093 20.8624 106.208 21.1101C105.322 21.3577 104.397 21.4285 103.484 21.3183C105.077 22.3428 106.932 22.8867 108.826 22.8849C115.237 22.8849 118.743 17.5741 118.743 12.9683C118.743 12.8183 118.739 12.6666 118.732 12.5183C119.414 12.0251 120.003 11.4141 120.471 10.7141L120.47 10.7133Z" fill="#333333"/>
</g>
</g>
<g clip-path="url(#clip6_4492_2037)">
<path d="M144 16C144 7.16343 151.163 0 160 0C168.837 0 176 7.16343 176 16C176 24.8366 168.837 32 160 32C151.163 32 144 24.8366 144 16Z" fill="#333333"/>
<path fill-rule="evenodd" clip-rule="evenodd" d="M159.676 0C159.601 6.58251 159.17 10.2664 156.718 12.7183C154.266 15.1702 150.583 15.6006 144 15.6762V16.6315C150.583 16.707 154.266 17.1375 156.718 19.5894C159.132 22.0028 159.587 25.6099 159.672 32H160.635C160.721 25.6099 161.176 22.0028 163.589 19.5894C166.003 17.1759 169.61 16.721 176 16.6353V15.6723C169.61 15.5866 166.003 15.1317 163.589 12.7183C161.137 10.2664 160.707 6.58251 160.631 0H159.676Z" fill="white"/>
</g>
<defs>
<clipPath id="clip0_4492_2037">
<rect width="32" height="32" fill="white"/>
</clipPath>
<clipPath id="clip1_4492_2037">
<rect width="20" height="12" fill="white" transform="translate(6 10)"/>
</clipPath>
<clipPath id="clip2_4492_2037">
<rect width="32" height="32" fill="white" transform="translate(48)"/>
</clipPath>
<clipPath id="clip3_4492_2037">
<rect width="16" height="14" fill="white" transform="translate(56 9)"/>
</clipPath>
<clipPath id="clip4_4492_2037">
<rect width="32" height="32" fill="white" transform="translate(96)"/>
</clipPath>
<clipPath id="clip5_4492_2037">
<rect width="18" height="18" fill="white" transform="translate(103 7)"/>
</clipPath>
<clipPath id="clip6_4492_2037">
<rect width="32" height="32" fill="white" transform="translate(144)"/>
</clipPath>
</defs>
</svg>
