<svg width="51" height="36" viewBox="0 0 51 36" fill="none" xmlns="http://www.w3.org/2000/svg">
<g clip-path="url(#clip0_4492_1561)">
<path d="M13.3302 1.2804C13.3303 1.11943 13.2954 0.960409 13.2279 0.814578C13.1605 0.668747 13.0621 0.539666 12.9399 0.436463C12.6953 0.205117 12.3718 0.0779848 12.0368 0.0815367C11.8039 0.0777518 11.5747 0.140646 11.3757 0.262943C11.1563 0.404074 10.9897 0.614972 10.902 0.862374L6.73793 10.2114L2.5634 0.84397C2.47194 0.611079 2.31113 0.412633 2.1032 0.276053C1.89527 0.139474 1.65048 0.0715042 1.40265 0.0815367C1.04763 0.079776 0.70356 0.205576 0.431894 0.436463C0.296436 0.538044 0.186683 0.670551 0.111599 0.823162C0.0365151 0.975774 -0.00177111 1.14416 -0.000132648 1.31458C-0.00158407 1.48194 0.034917 1.64742 0.106573 1.79833L5.31172 12.9772L3.45348 16.9839C3.37526 17.1552 3.32936 17.3398 3.31815 17.5281C3.31581 17.6859 3.35015 17.8421 3.4184 17.9841C3.48665 18.1261 3.58691 18.25 3.71113 18.3458C3.95593 18.5555 4.26722 18.6694 4.5882 18.6665C4.82375 18.6655 5.05374 18.5941 5.24926 18.4614C5.46268 18.3199 5.62872 18.1164 5.72553 17.8778L13.2235 1.79833C13.2945 1.63509 13.3308 1.45867 13.3302 1.2804Z" fill="#2963A3"/>
<path d="M39.5071 12.5118C39.4991 12.6807 39.5262 12.8493 39.5867 13.0069C39.6473 13.1645 39.7398 13.3075 39.8584 13.4267C39.9819 13.5416 40.1266 13.6306 40.2843 13.6888C40.442 13.747 40.6094 13.7732 40.7771 13.7659C41.1427 13.7818 41.5001 13.6536 41.7739 13.4083C41.9001 13.2915 42 13.1486 42.0669 12.9894C42.1338 12.8302 42.1661 12.6584 42.1617 12.4855V1.3908C42.1707 1.21084 42.1431 1.03093 42.0804 0.862232C42.0177 0.693535 41.9214 0.539656 41.7973 0.410152C41.5162 0.179307 41.1644 0.0543847 40.8021 0.0567829C40.4398 0.0591811 40.0897 0.188751 39.8116 0.423298C39.6856 0.549219 39.5869 0.700291 39.5219 0.866874C39.457 1.03346 39.4271 1.21189 39.4342 1.3908V7.79787C39.4342 8.94064 39.1149 9.85819 38.4764 10.5505C38.1492 10.8971 37.7522 11.1689 37.3123 11.3476C36.8723 11.5262 36.3996 11.6077 35.9259 11.5864C35.0289 11.5864 34.3635 11.3322 33.9298 10.8239C33.496 10.3157 33.28 9.52693 33.2817 8.45777V1.3908C33.2908 1.21084 33.2631 1.03093 33.2004 0.862232C33.1377 0.693535 33.0414 0.539656 32.9174 0.410152C32.7838 0.287248 32.6273 0.192539 32.457 0.131589C32.2867 0.0706386 32.1061 0.0446762 31.9258 0.0552264C31.7422 0.044194 31.5583 0.0698661 31.3846 0.130771C31.2108 0.191677 31.0507 0.286617 30.9134 0.410152C30.7882 0.538814 30.6911 0.692558 30.6283 0.861466C30.5656 1.03037 30.5385 1.2107 30.549 1.3908V8.48932C30.549 12.0508 32.1505 13.8316 35.3534 13.8316C36.2042 13.8433 37.044 13.6371 37.7946 13.2322C38.5229 12.833 39.1186 12.2258 39.5071 11.4865V12.5118Z" fill="#2963A3"/>
<path d="M15.3552 33.8917L14.5979 33.8364C13.8796 33.7821 13.3443 33.5551 12.9921 33.1555C12.6433 32.7559 12.4716 32.1275 12.4716 31.2731V24.6767H15.134C15.4484 24.7007 15.7605 24.6071 16.0111 24.4138C16.1173 24.3137 16.2001 24.191 16.2537 24.0546C16.3073 23.9182 16.3302 23.7715 16.3208 23.6251C16.3291 23.4788 16.3057 23.3324 16.2522 23.1962C16.1987 23.0599 16.1164 22.9371 16.0111 22.8364C15.7648 22.6328 15.4516 22.5305 15.134 22.5498H12.4612V19.7419C12.4713 19.5607 12.4428 19.3794 12.3777 19.2103C12.3126 19.0411 12.2124 18.888 12.0838 18.7613C11.8094 18.5154 11.4509 18.3871 11.0844 18.4037C10.9053 18.3942 10.7262 18.4207 10.5573 18.4817C10.3885 18.5426 10.2332 18.6367 10.1006 18.7587C9.97543 18.8873 9.87832 19.0411 9.81556 19.21C9.7528 19.3789 9.72579 19.5592 9.73627 19.7393V22.5498H8.11747C7.79977 22.5299 7.48641 22.6323 7.2404 22.8364C7.13417 22.9366 7.05111 23.0592 6.99713 23.1955C6.94315 23.3319 6.91958 23.4785 6.92809 23.6251C6.92809 24.3262 7.32455 24.6767 8.11747 24.6767H9.73627V31.0838C9.73627 32.6271 10.0954 33.797 10.8163 34.5857C11.5372 35.3745 12.6225 35.8267 14.08 35.9371L14.8087 35.9897C15.2322 36.0514 15.664 35.9701 16.0371 35.7583C16.1723 35.6685 16.2821 35.5447 16.3556 35.399C16.4291 35.2533 16.4637 35.0908 16.4561 34.9275C16.4635 34.7955 16.4443 34.6633 16.3995 34.539C16.3548 34.4147 16.2855 34.3009 16.1958 34.2045C15.9591 34.0065 15.6625 33.8961 15.3552 33.8917Z" fill="#2963A3"/>
<path d="M36.0118 16.4976C35.6534 16.4854 35.3032 16.6071 35.0281 16.8394C34.8939 16.9653 34.7893 17.1198 34.7217 17.2917C34.6542 17.4637 34.6255 17.6486 34.6377 17.8332V34.683C34.6246 34.8657 34.653 35.0489 34.7207 35.2189C34.7883 35.3888 34.8934 35.5409 35.0281 35.6636C35.3068 35.8877 35.6559 36.0034 36.0118 35.9896C36.3648 36.0049 36.7111 35.8889 36.9852 35.6636C37.1159 35.5385 37.2176 35.3857 37.2829 35.2161C37.3481 35.0465 37.3753 34.8644 37.3626 34.683V17.8332C37.3746 17.6498 37.3471 17.466 37.2819 17.2944C37.2168 17.1228 37.1155 16.9676 36.9852 16.8394C36.7148 16.606 36.3673 16.484 36.0118 16.4976Z" fill="#2963A3"/>
<path d="M50.5133 33.6997L45.2248 28.9831L50.0292 24.54C50.1684 24.4229 50.2815 24.2773 50.3609 24.1128C50.4403 23.9482 50.4843 23.7686 50.4898 23.5856C50.4812 23.2483 50.3446 22.9273 50.1082 22.689C49.8718 22.4506 49.5537 22.3133 49.2198 22.3053C48.8833 22.327 48.5665 22.473 48.3297 22.7154L42.1772 28.5204V17.8332C42.1898 17.6498 42.1625 17.4658 42.0973 17.2941C42.0321 17.1225 41.9306 16.9673 41.7998 16.8394C41.5305 16.606 41.1838 16.4839 40.8291 16.4976C40.4699 16.4853 40.1188 16.6069 39.8427 16.8394C39.7086 16.9653 39.6039 17.1198 39.5364 17.2918C39.4689 17.4637 39.4401 17.6487 39.4523 17.8332V34.6593C39.4401 34.8443 39.4688 35.0296 39.5363 35.202C39.6039 35.3743 39.7085 35.5293 39.8427 35.6557C40.1191 35.8873 40.4702 36.008 40.8291 35.9949C41.1834 36.0094 41.5301 35.8882 41.7998 35.6557C41.9307 35.5273 42.0322 35.3717 42.0974 35.1996C42.1626 35.0275 42.1898 34.8431 42.1772 34.6593V29.6115L48.8971 35.6084C49.1414 35.8532 49.4717 35.9903 49.8158 35.9896C49.974 35.9905 50.1305 35.9568 50.2746 35.891C50.4188 35.8253 50.5472 35.7289 50.6512 35.6084C50.8845 35.3667 51.0136 35.0416 51.0103 34.704C51.0096 34.5092 50.9644 34.3173 50.8782 34.1431C50.792 33.9689 50.6671 33.8171 50.5133 33.6997Z" fill="#2963A3"/>
<path d="M15.3342 13.8212H22.3299C23.5217 13.8473 24.6993 13.5563 25.7445 12.9773C26.7188 12.417 27.5075 11.5782 28.0113 10.5664C28.5602 9.4342 28.8324 8.18555 28.8051 6.92515C28.8355 5.65685 28.5633 4.39979 28.0113 3.26021C27.5091 2.24593 26.7202 1.40505 25.7445 0.844087C24.6993 0.265099 23.5217 -0.0259512 22.3299 0.000152312H20.1203C18.9294 -0.0259836 17.7526 0.265083 16.7083 0.844087C15.7315 1.40353 14.9422 2.24482 14.4415 3.26021C13.8887 4.39956 13.6155 5.65664 13.6451 6.92515V10.7794C13.6451 13.001 14.2073 13.8212 15.3342 13.8212ZM17.3694 3.41796C18.0183 2.61171 18.9353 2.20858 20.1203 2.20858H22.3299C23.5167 2.20858 24.4345 2.61346 25.0834 3.42322C25.7323 4.23297 26.0559 5.40028 26.0542 6.92515C26.0542 8.4693 25.7349 9.64099 25.0964 10.4402C24.4579 11.2395 23.5358 11.64 22.3299 11.6417H16.4299C16.4299 11.6417 16.396 8.46842 16.396 6.92515C16.396 5.38188 16.7214 4.23034 17.3694 3.41796Z" fill="#2963A3"/>
<path d="M29.6095 23.023C28.5658 22.4423 27.3888 22.1502 26.1975 22.1764H23.9879C22.796 22.1515 21.6184 22.4434 20.5733 23.023C19.5977 23.5829 18.8087 24.4229 18.3065 25.4365C17.7605 26.5777 17.4928 27.8343 17.5257 29.1014C17.4953 30.3607 17.763 31.609 18.3065 32.7427C18.8095 33.755 19.5984 34.594 20.5733 35.1536C21.6187 35.7322 22.7962 36.0232 23.9879 35.9975H30.9836C32.1131 35.9975 32.6727 35.1772 32.6727 32.9478V29.1014C32.7029 27.8328 32.4297 26.5756 31.8763 25.4365C31.3756 24.4218 30.5863 23.5813 29.6095 23.023ZM29.8879 33.818H23.9879C22.7855 33.818 21.8633 33.4184 21.2214 32.6191C20.5794 31.8199 20.261 30.6473 20.2662 29.1014C20.2662 27.5731 20.5898 26.4057 21.237 25.5995C21.8842 24.7932 22.8011 24.3884 23.9879 24.3849H26.1975C27.3843 24.3849 28.3021 24.7897 28.951 25.5995C29.5999 26.4092 29.9261 27.5766 29.9296 29.1014C29.9296 30.6447 29.8879 33.818 29.8879 33.818Z" fill="#2963A3"/>
</g>
<defs>
<clipPath id="clip0_4492_1561">
<rect width="51" height="36" fill="white"/>
</clipPath>
</defs>
</svg>
